<mxfile host="app.diagrams.net" modified="2023-10-13T01:06:02.508Z" agent="Mozilla/5.0 (Windows NT 10.0; Win64; x64) AppleWebKit/537.36 (KHTML, like Gecko) Chrome/115.0.0.0 Safari/537.36" etag="bT7FePuiuRShtTGCQK-E" version="22.0.4" type="github">
  <diagram name="Página-1" id="09mYGsBvBwi9Bdj3SzfG">
    <mxGraphModel dx="862" dy="562" grid="1" gridSize="10" guides="1" tooltips="1" connect="1" arrows="1" fold="1" page="1" pageScale="1" pageWidth="827" pageHeight="1169" math="0" shadow="0">
      <root>
        <mxCell id="0" />
        <mxCell id="1" parent="0" />
        <mxCell id="8kkV1aNBJOV69ewKnB3c-9" style="edgeStyle=orthogonalEdgeStyle;rounded=0;orthogonalLoop=1;jettySize=auto;html=1;dashed=1;endArrow=block;endFill=1;dashPattern=8 8;" edge="1" parent="1" source="8kkV1aNBJOV69ewKnB3c-1" target="8kkV1aNBJOV69ewKnB3c-3">
          <mxGeometry relative="1" as="geometry" />
        </mxCell>
        <mxCell id="8kkV1aNBJOV69ewKnB3c-12" value="Registra motocicletas, &lt;br&gt;registra recorridos, &lt;br&gt;programa notificaciones &lt;br&gt;y &lt;br&gt;programa mantenimientos" style="edgeLabel;html=1;align=center;verticalAlign=middle;resizable=0;points=[];" vertex="1" connectable="0" parent="8kkV1aNBJOV69ewKnB3c-9">
          <mxGeometry x="-0.3223" y="1" relative="1" as="geometry">
            <mxPoint x="-1" y="16" as="offset" />
          </mxGeometry>
        </mxCell>
        <object placeholders="1" c4Name="Dinotrack Customer" c4Type="Motorcycle owner" c4Description="Customer with registered motorcycles in the App  " label="&lt;font style=&quot;font-size: 16px&quot;&gt;&lt;b&gt;%c4Name%&lt;/b&gt;&lt;/font&gt;&lt;div&gt;[%c4Type%]&lt;/div&gt;&lt;br&gt;&lt;div&gt;&lt;font style=&quot;font-size: 11px&quot;&gt;&lt;font color=&quot;#cccccc&quot;&gt;%c4Description%&lt;/font&gt;&lt;/div&gt;" id="8kkV1aNBJOV69ewKnB3c-1">
          <mxCell style="html=1;fontSize=11;dashed=0;whiteSpace=wrap;fillColor=#083F75;strokeColor=#06315C;fontColor=#ffffff;shape=mxgraph.c4.person2;align=center;metaEdit=1;points=[[0.5,0,0],[1,0.5,0],[1,0.75,0],[0.75,1,0],[0.5,1,0],[0.25,1,0],[0,0.75,0],[0,0.5,0]];resizable=0;" vertex="1" parent="1">
            <mxGeometry x="60" y="50" width="200" height="180" as="geometry" />
          </mxCell>
        </object>
        <mxCell id="8kkV1aNBJOV69ewKnB3c-10" style="edgeStyle=orthogonalEdgeStyle;rounded=0;orthogonalLoop=1;jettySize=auto;html=1;dashed=1;endArrow=block;endFill=1;dashPattern=8 8;" edge="1" parent="1" source="8kkV1aNBJOV69ewKnB3c-3" target="8kkV1aNBJOV69ewKnB3c-8">
          <mxGeometry relative="1" as="geometry" />
        </mxCell>
        <mxCell id="8kkV1aNBJOV69ewKnB3c-13" value="Envía notificaciones &lt;br&gt;al usuario" style="edgeLabel;html=1;align=center;verticalAlign=middle;resizable=0;points=[];" vertex="1" connectable="0" parent="8kkV1aNBJOV69ewKnB3c-10">
          <mxGeometry x="-0.0331" y="2" relative="1" as="geometry">
            <mxPoint as="offset" />
          </mxGeometry>
        </mxCell>
        <mxCell id="8kkV1aNBJOV69ewKnB3c-11" style="edgeStyle=orthogonalEdgeStyle;rounded=0;orthogonalLoop=1;jettySize=auto;html=1;dashed=1;endArrow=block;endFill=1;dashPattern=8 8;" edge="1" parent="1" source="8kkV1aNBJOV69ewKnB3c-3" target="8kkV1aNBJOV69ewKnB3c-6">
          <mxGeometry relative="1" as="geometry" />
        </mxCell>
        <mxCell id="8kkV1aNBJOV69ewKnB3c-16" value="Envía y recibe informaciones &lt;br&gt;de desplazamientos y rutas" style="edgeLabel;html=1;align=center;verticalAlign=middle;resizable=0;points=[];" vertex="1" connectable="0" parent="8kkV1aNBJOV69ewKnB3c-11">
          <mxGeometry x="0.0209" y="1" relative="1" as="geometry">
            <mxPoint as="offset" />
          </mxGeometry>
        </mxCell>
        <object placeholders="1" c4Name="Dinotrack App" c4Type="Software System" c4Description="Allows customer to subscribes motorcycles and program notifications alarms" label="&lt;font style=&quot;font-size: 16px&quot;&gt;&lt;b&gt;%c4Name%&lt;/b&gt;&lt;/font&gt;&lt;div&gt;[%c4Type%]&lt;/div&gt;&lt;br&gt;&lt;div&gt;&lt;font style=&quot;font-size: 11px&quot;&gt;&lt;font color=&quot;#cccccc&quot;&gt;%c4Description%&lt;/font&gt;&lt;/div&gt;" id="8kkV1aNBJOV69ewKnB3c-3">
          <mxCell style="rounded=1;whiteSpace=wrap;html=1;labelBackgroundColor=none;fillColor=#1061B0;fontColor=#ffffff;align=center;arcSize=10;strokeColor=#0D5091;metaEdit=1;resizable=0;points=[[0.25,0,0],[0.5,0,0],[0.75,0,0],[1,0.25,0],[1,0.5,0],[1,0.75,0],[0.75,1,0],[0.5,1,0],[0.25,1,0],[0,0.75,0],[0,0.5,0],[0,0.25,0]];" vertex="1" parent="1">
            <mxGeometry x="40" y="360" width="240" height="120" as="geometry" />
          </mxCell>
        </object>
        <object placeholders="1" c4Name="Google Maps Platform" c4Type="Distance Matrix API" c4Description="Google API for distance and route time" label="&lt;font style=&quot;font-size: 16px&quot;&gt;&lt;b&gt;%c4Name%&lt;/b&gt;&lt;/font&gt;&lt;div&gt;[%c4Type%]&lt;/div&gt;&lt;br&gt;&lt;div&gt;&lt;font style=&quot;font-size: 11px&quot;&gt;&lt;font color=&quot;#cccccc&quot;&gt;%c4Description%&lt;/font&gt;&lt;/div&gt;" id="8kkV1aNBJOV69ewKnB3c-6">
          <mxCell style="rounded=1;whiteSpace=wrap;html=1;labelBackgroundColor=none;fillColor=#8C8496;fontColor=#ffffff;align=center;arcSize=10;strokeColor=#736782;metaEdit=1;resizable=0;points=[[0.25,0,0],[0.5,0,0],[0.75,0,0],[1,0.25,0],[1,0.5,0],[1,0.75,0],[0.75,1,0],[0.5,1,0],[0.25,1,0],[0,0.75,0],[0,0.5,0],[0,0.25,0]];" vertex="1" parent="1">
            <mxGeometry x="270" y="690" width="240" height="120" as="geometry" />
          </mxCell>
        </object>
        <mxCell id="8kkV1aNBJOV69ewKnB3c-14" style="edgeStyle=orthogonalEdgeStyle;rounded=0;orthogonalLoop=1;jettySize=auto;html=1;" edge="1" parent="1" source="8kkV1aNBJOV69ewKnB3c-8" target="8kkV1aNBJOV69ewKnB3c-1">
          <mxGeometry relative="1" as="geometry">
            <Array as="points">
              <mxPoint x="640" y="170" />
            </Array>
          </mxGeometry>
        </mxCell>
        <mxCell id="8kkV1aNBJOV69ewKnB3c-15" value="SMS, E-mail y notificaciones &lt;br&gt;push enviadas al usuario&amp;nbsp;&amp;nbsp;" style="edgeLabel;html=1;align=center;verticalAlign=middle;resizable=0;points=[];" vertex="1" connectable="0" parent="8kkV1aNBJOV69ewKnB3c-14">
          <mxGeometry x="0.2381" y="-2" relative="1" as="geometry">
            <mxPoint x="-1" as="offset" />
          </mxGeometry>
        </mxCell>
        <object placeholders="1" c4Name="External Notification System" c4Type="Software System" c4Description="SMS and E-mail delivery system " label="&lt;font style=&quot;font-size: 16px&quot;&gt;&lt;b&gt;%c4Name%&lt;/b&gt;&lt;/font&gt;&lt;div&gt;[%c4Type%]&lt;/div&gt;&lt;br&gt;&lt;div&gt;&lt;font style=&quot;font-size: 11px&quot;&gt;&lt;font color=&quot;#cccccc&quot;&gt;%c4Description%&lt;/font&gt;&lt;/div&gt;" id="8kkV1aNBJOV69ewKnB3c-8">
          <mxCell style="rounded=1;whiteSpace=wrap;html=1;labelBackgroundColor=none;fillColor=#8C8496;fontColor=#ffffff;align=center;arcSize=10;strokeColor=#736782;metaEdit=1;resizable=0;points=[[0.25,0,0],[0.5,0,0],[0.75,0,0],[1,0.25,0],[1,0.5,0],[1,0.75,0],[0.75,1,0],[0.5,1,0],[0.25,1,0],[0,0.75,0],[0,0.5,0],[0,0.25,0]];" vertex="1" parent="1">
            <mxGeometry x="520" y="360" width="240" height="120" as="geometry" />
          </mxCell>
        </object>
      </root>
    </mxGraphModel>
  </diagram>
</mxfile>
